<svg width="15" height="13" viewBox="0 0 15 13" fill="none" xmlns="http://www.w3.org/2000/svg">
<g clip-path="url(#clip0_256_17407)">
<path d="M7.14844 7.5V2.8125C7.14844 2.71926 7.18548 2.62984 7.25141 2.56391C7.31734 2.49798 7.40676 2.46094 7.5 2.46094C7.59324 2.46094 7.68266 2.49798 7.74859 2.56391C7.81452 2.62984 7.85156 2.71926 7.85156 2.8125V7.5C7.85156 7.59324 7.81452 7.68266 7.74859 7.74859C7.68266 7.81452 7.59324 7.85156 7.5 7.85156C7.40676 7.85156 7.31734 7.81452 7.25141 7.74859C7.18548 7.68266 7.14844 7.59324 7.14844 7.5ZM10.5047 2.98828C10.4272 2.94608 10.3366 2.93458 10.251 2.95605C10.1654 2.97753 10.091 3.03042 10.0426 3.10421C9.99422 3.17801 9.97533 3.26731 9.98972 3.35438C10.0041 3.44145 10.0507 3.51993 10.1203 3.57422C11.5084 4.48066 12.3047 5.91094 12.3047 7.5C12.3047 8.77428 11.7985 9.99637 10.8974 10.8974C9.99637 11.7985 8.77428 12.3047 7.5 12.3047C6.22572 12.3047 5.00363 11.7985 4.10257 10.8974C3.20152 9.99637 2.69531 8.77428 2.69531 7.5C2.69531 5.91094 3.4916 4.48066 4.87969 3.57422C4.94927 3.51993 4.99588 3.44145 5.01027 3.35438C5.02467 3.26731 5.00578 3.17801 4.95738 3.10421C4.90897 3.03042 4.83457 2.97753 4.74897 2.95605C4.66337 2.93458 4.57282 2.94608 4.49531 2.98828C2.90449 4.02422 1.99219 5.66895 1.99219 7.5C1.99219 8.96076 2.57247 10.3617 3.60539 11.3946C4.6383 12.4275 6.03924 13.0078 7.5 13.0078C8.96076 13.0078 10.3617 12.4275 11.3946 11.3946C12.4275 10.3617 13.0078 8.96076 13.0078 7.5C13.0078 5.66895 12.0955 4.02422 10.5047 2.98828Z" fill="#252525"/>
</g>
<defs>
<clipPath id="clip0_256_17407">
<rect width="11" height="11" fill="white" transform="translate(2 2)"/>
</clipPath>
</defs>
</svg>
