<svg width="73" height="73" viewBox="0 0 73 73" fill="none" xmlns="http://www.w3.org/2000/svg">
<g clip-path="url(#clip0_30_3674)">
<g clip-path="url(#clip1_30_3674)">
<path d="M37.376 0C48.8553 0 59.4841 5.09175 66.5322 13.6656C66.733 13.9086 66.8829 14.1896 66.9729 14.4917C67.0629 14.7938 67.0911 15.111 67.0561 15.4243C67.021 15.7376 66.9233 16.0406 66.7687 16.3154C66.6141 16.5901 66.4058 16.831 66.1562 17.0236C65.6482 17.4218 65.005 17.6064 64.3631 17.5383C63.7212 17.4702 63.1311 17.1546 62.718 16.6586C59.636 12.9255 55.7638 9.923 51.3808 7.86782C46.9978 5.81265 42.2132 4.75603 37.3724 4.7742C19.4326 4.7742 4.88735 18.98 4.88735 36.5C4.88735 54.02 19.4326 68.2258 37.3724 68.2258C42.283 68.2446 47.1349 67.1575 51.568 65.0451C56.0012 62.9328 59.9019 59.8495 62.9807 56.0238C63.3869 55.5227 63.9722 55.1994 64.6127 55.1224C65.2531 55.0455 65.8984 55.2208 66.4118 55.6114C66.6635 55.8007 66.8746 56.0387 67.0326 56.3113C67.1906 56.5838 67.2921 56.8853 67.3313 57.1978C67.3705 57.5104 67.3464 57.8276 67.2605 58.1307C67.1747 58.4338 67.0288 58.7165 66.8315 58.9621C59.7943 67.7586 49.0232 73 37.376 73C16.7279 73 0 56.659 0 36.5C0 16.3411 16.7316 0 37.376 0ZM62.4077 26.134L72.2846 36.0145C73.2409 36.9672 73.2592 38.4966 72.3284 39.431L62.6778 49.0779C62.2199 49.526 61.6027 49.7739 60.962 49.767C60.3214 49.7602 59.7097 49.4992 59.2614 49.0414C59.0339 48.8196 58.8524 48.5552 58.7273 48.2632C58.6022 47.9712 58.5358 47.6574 58.5321 47.3397C58.5284 47.022 58.5873 46.7068 58.7056 46.4119C58.8238 46.117 58.9991 45.8484 59.2213 45.6213L64.8678 39.9748H27.2363C26.919 39.9787 26.604 39.92 26.3094 39.8021C26.0147 39.6842 25.7462 39.5094 25.5191 39.2878C25.292 39.0661 25.1108 38.8019 24.9859 38.5102C24.8609 38.2185 24.7946 37.905 24.7908 37.5877C24.7908 36.2664 25.8858 35.1969 27.2363 35.1969H64.7182L59.0315 29.5103C58.5732 29.0625 58.3115 28.451 58.304 27.8104C58.2964 27.1697 58.5437 26.5523 58.9913 26.0939C59.4497 25.6462 60.0672 25.399 60.7078 25.4065C61.3485 25.4141 61.9599 25.6757 62.4077 26.134Z" fill="#CC6237"/>
</g>
</g>
<defs>
<clipPath id="clip0_30_3674">
<rect width="73" height="73" fill="white"/>
</clipPath>
<clipPath id="clip1_30_3674">
<rect width="73" height="73" fill="white"/>
</clipPath>
</defs>
</svg>
